<?xml version="1.0" encoding="utf-8"?>
<!-- Generator: Adobe Illustrator 19.2.1, SVG Export Plug-In . SVG Version: 6.00 Build 0)  -->
<svg version="1.1" id="Layer_1" xmlns="http://www.w3.org/2000/svg" xmlns:xlink="http://www.w3.org/1999/xlink" x="0px" y="0px"
	 viewBox="0 0 70 70" style="enable-background:new 0 0 70 70;" xml:space="preserve">
<g>
	<path d="M67.6,22.4c0.8,5.5-2.5,10.8-8.1,12.4C53.6,36.4,47.6,32.9,46,27c-1-3.8,0.1-7.6,2.5-10.3c-0.2-0.1-0.5-0.2-0.8-0.2
		c-0.7-0.2-1.5-0.3-2.2-0.3c-0.7-0.1-1.5-0.1-2.1,0.1c-0.7,0.2-1.3,0.4-1.8,0.8c-0.5,0.5-0.8,1.1-0.9,1.8c-0.2,0.7-0.2,1.4-0.2,2.1
		s0.1,1.4,0.2,2.2c0.2,1.5,0.5,2.8,0.8,4.2s0.7,2.8,1.1,4.2c0.8,2.8,1.7,5.6,2.6,8.4c0.5,1.4,0.9,2.8,1.5,4.1c0.5,1.4,1,2.8,1.5,4.1
		c0.2,0.6,0.5,1.2,0.6,1.8c0.2-0.5,0.4-0.8,0.7-1.3c0.7-1.3,1.6-2.4,2.6-3.2c0.2-0.2,0.5-0.5,0.8-0.6c4-3.3,8.7-4.2,10.5-2
		s0.1,6.7-3.9,10c-2.6,2.2-5.6,3.3-7.8,3.2c-0.2,0-0.5,0-0.7,0c0.1,0.2,0.1,0.3,0.2,0.5l1.4,4.1c0.4,1.3,0.8,2.6,1.2,3.9
		C63.6,58.4,70,47.5,70,35.1C69.9,30.5,69.1,26.3,67.6,22.4z"/>
	<ellipse transform="matrix(0.4848 -0.8746 0.8746 0.4848 9.0137 70.3615)" cx="64.2" cy="27.5" rx="3.8" ry="2.1"/>
	<path d="M50.7,61.3c-0.3-0.7-0.5-1.4-0.8-2.2c-0.5-0.4-0.9-0.8-1.3-1.2c-0.9-0.9-1.8-1.8-2.7-2.8c-0.8-1-1.7-2-2.5-3
		c-0.2-0.3-0.5-0.6-0.7-0.9L41.6,50c-1.1-1.2-2.2-2.4-3.2-3.6c-0.2-0.2-0.4-0.5-0.6-0.7C37,45,36,44.5,35,44.1
		c-0.5-0.2-1.1-0.4-1.6-0.4s-1.1,0.2-1.6,0.4c-0.8,0.4-1.7,1-2.6,1.5c3.8,0.5,7,3.4,7.8,7.3c1,5-2.2,9.9-7.2,10.9s-9.9-2.2-10.9-7.2
		s2.2-9.9,7.2-10.9c0.8-0.2,1.7-0.2,2.5-0.2c0.3-0.4,0.7-0.8,1-1.2c0.5-0.5,1-0.9,1.5-1.3c0.3-0.2,0.6-0.4,1-0.5
		c0.4-0.2,0.8-0.2,1.2-0.2c0.8,0,1.5,0.2,2.1,0.5c-0.1-0.1-0.2-0.2-0.2-0.2c-1.1-1.2-2.1-2.4-3.2-3.5c-1.1-1.2-2.2-2.3-3.5-3.2
		c-0.6-0.5-1.2-0.9-1.9-1.2s-1.5-0.5-2.2-0.2c-0.5,0.2-1,0.4-1.5,0.6c1.4,0.8,2.5,2.3,2.8,4c0.7,3.3-1.5,6.6-4.8,7.3
		s-6.6-1.5-7.3-4.8s1.5-6.6,4.8-7.3c1.5-0.3,2.9-0.1,4.1,0.6c0.5-0.4,1.1-0.7,1.7-0.8c0.4-0.2,0.8-0.2,1.3-0.2s0.8,0.2,1.2,0.3
		c0.8,0.3,1.5,0.8,2.2,1.2c1.3,1,2.5,2.1,3.7,3.2c1.2,1.2,2.3,2.3,3.4,3.5c1.1,1.2,2.2,2.3,3.3,3.5s2.2,2.4,3.2,3.6L44,51
		c0.1,0.1,0.2,0.2,0.3,0.3c0.9,0.9,1.8,1.9,2.7,2.9c0.6,0.8,1.2,1.5,1.8,2.2c-0.9-2.5-1.8-4.9-2.6-7.5l-1.3-4.2
		c-0.5-1.4-0.8-2.8-1.3-4.2c-0.8-2.8-1.6-5.6-2.4-8.5c-0.3-1.5-0.7-2.8-0.9-4.3s-0.5-2.9-0.6-4.4c-0.1-0.8-0.1-1.5,0-2.2
		c0-0.8,0.2-1.5,0.4-2.3s0.6-1.5,1.2-2.1c0.6-0.5,1.4-0.8,2.2-1c0.8-0.1,1.5-0.1,2.3,0s1.5,0.2,2.2,0.5c0.3,0.1,0.6,0.2,0.9,0.3
		c1.3-1.4,3-2.4,5-2.9c4-1.1,8.1,0.2,10.8,2.9C58.4,6.6,47.4,0,35,0C15.6,0,0,15.6,0,35s15.7,35,35,35c6.4,0,12.3-1.7,17.4-4.7
		C51.8,64,51.3,62.7,50.7,61.3z M26.4,26.7c0-0.2,0.1-0.5,0.1-0.7c0.6-3.8,2.8-6.6,4.9-6.2c2.1,0.3,3.3,3.7,2.7,7.5
		c-0.4,2.5-1.5,4.6-2.8,5.6c-0.5,0.5-1,0.8-1,0.8l-0.9-0.2l-1.2-0.2c-0.2-0.2-0.4-0.5-0.5-0.8c-0.5-0.7-0.9-1.6-1.2-2.8
		C26.2,28.7,26.2,27.6,26.4,26.7z M18.5,27.2c0.8-1,2.8-0.8,4.7,0.5c1.2,0.9,2.1,2,2.2,3c0.2,0.5,0.2,0.8,0.2,0.8l-0.8,1.1
		c-0.2,0-0.4,0.1-0.5,0.1c-0.5,0.2-1.2,0.1-1.8-0.2c-0.6-0.2-1.2-0.5-1.7-0.8c-0.2-0.1-0.2-0.2-0.4-0.2
		C18.6,30.1,17.7,28.2,18.5,27.2z"/>
	<ellipse transform="matrix(0.2887 -0.9574 0.9574 0.2887 -29.2693 49.0496)" cx="18.4" cy="44.2" rx="1.3" ry="1.9"/>
	<ellipse transform="matrix(0.4429 -0.8966 0.8966 0.4429 -40.4884 56.5939)" cx="25.3" cy="60.9" rx="1.7" ry="2.5"/>
</g>
</svg>
